<?xml version="1.0" encoding="utf-8"?>
<!-- Generator: Adobe Illustrator 21.1.0, SVG Export Plug-In . SVG Version: 6.00 Build 0)  -->
<svg version="1.1" id="SERPIENTE1" xmlns="http://www.w3.org/2000/svg" xmlns:xlink="http://www.w3.org/1999/xlink" x="0px" y="0px"
	 viewBox="0 0 1292 266" style="enable-background:new 0 0 1292 266;" xml:space="preserve">
<style type="text/css">
	.st0{fill:#1F365B;}
	.st1{fill:#CB3038;}
	.st2{fill:#5697CB;}
	.st3{fill:#315887;}
	.st4{fill:#991C2C;}
	.st5{fill:#DA1E32;}
	.st6{fill:#B0B0B0;}
	.st7{fill:url(#SVGID_3_);}
	.st8{fill:url(#SVGID_6_);}
</style>
<g>
	<polygon class="st0" points="285.9,73.2 313.3,73.2 313.3,121.9 361.7,121.9 361.7,73.2 389,73.2 389,189.6 361.7,189.6 
		361.7,142.7 313.3,142.7 313.3,189.6 285.9,189.6 	"/>
	<path class="st0" d="M398.9,146.4c0-29.2,18.2-47.1,46.1-47.1c31.3,0,45.3,17.6,45.3,46.3c0,30-19.7,45.9-46.7,45.9
		C414.6,191.5,398.9,173.9,398.9,146.4 M462.9,145.6c0-14.2-3.5-25-18.4-25c-14.5,0-18.5,10.8-18.5,25.1c0,15.1,4.5,24.3,18.9,24.3
		C459.3,170,462.9,160.5,462.9,145.6"/>
	<path class="st0" d="M498.5,187.8l2.9-20.3c11.4,1.6,20.6,2.4,26.6,2.4c13.5,0,15.1-3.5,15.1-6.1c0-9.5-44.3-5-44.3-36.6
		c0-19,17.9-27.9,37.1-27.9c10.8,0,25.1,2.9,34.3,6.2l-4.5,19.5c-8.5-1.9-19.9-4.4-29-4.4c-9.2,0-11,3.4-11,5.3c0,10,44,7.3,44,36.7
		c0,23.2-24.3,28.8-39.1,28.8C517.9,191.5,507.6,190.4,498.5,187.8"/>
	<path class="st0" d="M580.6,101.6h26.7v6.3c3.5-3.1,13.2-8.6,21.3-8.6c24.2,0,38.8,11.1,38.8,42.2c0,36.7-23.7,49.6-49.3,49.6
		c-4,0-7.6-0.5-10.8-0.6v44.2h-26.7V101.6z M640.4,142.3c0-15.8-6.3-20.5-19.8-20.5c-4.5,0-9.8,1.3-13.2,2.4v45.4
		c2.6,0.3,7.1,1,11.4,1C632.5,170.7,640.4,158.8,640.4,142.3"/>
	<path class="st0" d="M677.2,101.6h26.7v88h-26.7V101.6z M703.8,79.5c0,7.4-6,13.4-13.4,13.4c-7.4,0-13.4-6-13.4-13.4
		c0-7.4,6-13.4,13.4-13.4C697.8,66.2,703.8,72.2,703.8,79.5"/>
	<path class="st0" d="M726.4,162.2v-40.8h-12.9v-19.8h12.9V73.8h26.8v27.8h27.2v19.8h-27.2V162c0,6.4,2.4,6.9,9.7,6.9
		c6,0,19-1.8,19-1.8l2.6,21.1c-6.3,1.8-14.8,3.1-21.3,3.1C746.3,191.3,726.4,192.1,726.4,162.2"/>
	<path class="st0" d="M790.1,146.8c0-35.9,18.9-47.4,45.4-47.4c27.7,0,38.3,18,38.3,44.6v9.7h-57c-0.2,13.9,10.8,16.4,24.8,16.4
		c6,0,16-1.9,25.1-3.5l4,20.5c-9.8,2.9-22.4,4.3-33,4.3C808.8,191.5,790.1,182,790.1,146.8 M813.1,76.4l38.4-19.5l8.7,18.8
		l-39.5,16.8L813.1,76.4z M846.3,136.5c0.3-10.6-4.4-18.1-13.1-18.1c-9.2,0-15.1,6.5-15.6,18.1H846.3z"/>
	<path class="st0" d="M884.8,144.8c0-27.4,18.4-45.4,48.2-45.4c12.9,0,21.1,2.4,28,6.1l-6.9,19.5c-7.1-2.7-11-3.7-20-3.7
		c-11.1,0-21.8,5-21.8,23.8c0,16.9,4,24.8,25.1,24.8c7.4,0,11.4-1,18.7-2.3l3.7,20.5c-9.5,2.1-14,3.2-23.9,3.2
		C898.8,191.3,884.8,177.6,884.8,144.8"/>
	<path class="st0" d="M972.3,101.6h26.9v8.9c5.3-4,16.9-11.1,28.7-11.1c27.6,0,29.5,15.2,29.5,35.1v55.1h-26.7v-52.8
		c0-12.1-2.7-14.2-11.8-14.2c-8.1,0-15.3,2.6-19.7,4.7v62.4h-26.9V101.6z"/>
	<path class="st0" d="M1069.5,101.6h26.7v88h-26.7V101.6z M1096.2,79.5c0,7.4-6,13.4-13.4,13.4c-7.4,0-13.4-6-13.4-13.4
		c0-7.4,6-13.4,13.4-13.4C1090.2,66.2,1096.2,72.2,1096.2,79.5"/>
	<path class="st0" d="M1107.5,144.8c0-27.4,18.4-45.4,48.2-45.4c12.9,0,21.1,2.4,28,6.1l-6.9,19.5c-7.1-2.7-11-3.7-20-3.7
		c-11.1,0-21.8,5-21.8,23.8c0,16.9,4,24.8,25.1,24.8c7.4,0,11.4-1,18.7-2.3l3.7,20.5c-9.5,2.1-14,3.2-23.8,3.2
		C1121.5,191.3,1107.5,177.6,1107.5,144.8"/>
	<path class="st0" d="M1189.1,164.4c0-22.2,20.3-26.7,37.7-26.7h15.3v-5.5c0-7.7-5-10-15.9-10c-8.7,0-18.1,1.9-26.3,3.9l-5.3-19.5
		c10-3.9,21.6-7.1,35.6-7.1c27.2,0,38.2,7.7,38.2,27.6v39.2c0,2.9,2.9,3.5,7.9,3.7l-1,20.3c-2.1,0.2-4.2,0.2-6.3,0.2
		c-10.6,0-21.9-1.8-24.3-9.3c-6.5,5-15.6,10-25.3,10C1200.1,191,1189.1,182,1189.1,164.4 M1242.1,167.2v-13.9l-13.2,0.3
		c-7.9,0.2-13.7,2.7-13.7,9.2c0,5.2,5,7.4,9.8,7.4C1230.2,170.2,1236.3,168.8,1242.1,167.2"/>
	<g>
		<path class="st1" d="M695.6,208.3c2,1.4,3,3.4,3,6.1c0,1.5-0.4,3-1.2,4.4c-0.8,1.4-2.2,2.6-4.2,3.5c-2,0.9-4.6,1.4-7.9,1.4
			c-0.6,0-1.1,0-1.4,0v5.8c0,1.4,0,2.5-0.1,3.1l3.7-0.2v1.8h-9.7v-1.3c0.9,0,1.6-0.2,2-0.6c0.4-0.4,0.6-0.9,0.7-1.4
			c0.1-0.5,0.1-1.5,0.1-2.8v-17.2c0-1.1,0-2.1,0.1-2.9l-2.9,0.2v-1.8c3.7-0.1,6.7-0.1,8.9-0.1C690.6,206.2,693.6,206.9,695.6,208.3z
			 M684.7,208.3c-0.4,0.4-0.6,0.8-0.6,1.3c-0.1,0.5-0.1,1.5-0.1,2.8v9.5c0.7,0.1,1.5,0.1,2.6,0.1c1.5,0,2.9-0.3,4.2-0.9
			c1.3-0.6,2.3-1.5,3-2.6c0.7-1.1,1.1-2.4,1.1-4c0-2.4-0.7-4.1-2.2-5.3c-1.5-1.1-3.5-1.7-6-1.7C685.7,207.7,685.1,207.9,684.7,208.3
			z"/>
		<path class="st1" d="M731.1,215.4c1.1,1.2,1.6,3,1.6,5.6l0,9c0,0.8-0.1,1.8-0.2,2.7l2.8-0.2v1.7h-5.7c-0.1-0.4-0.2-1.2-0.3-2.3
			c-1.9,1.9-4,2.9-6.2,2.9c-1.9,0-3.4-0.4-4.4-1.3c-1-0.9-1.5-2-1.5-3.4c0-1.5,0.6-2.8,1.9-3.9c1.2-1.1,2.8-1.9,4.7-2.4
			c1.9-0.5,3.7-0.8,5.6-0.7v-2.5c0-1.7-0.3-3.1-0.8-4c-0.5-1-1.6-1.5-3.2-1.5c-0.8,0-1.6,0.2-2.3,0.5c-0.7,0.3-1.3,0.9-1.6,1.6
			c0.3,0.4,0.5,0.9,0.5,1.5c0,0.4-0.1,0.8-0.4,1.1c-0.3,0.4-0.7,0.5-1.3,0.5c-0.6,0-1-0.2-1.3-0.5c-0.3-0.4-0.5-0.8-0.5-1.4
			c0-0.9,0.3-1.7,1-2.4c0.7-0.7,1.6-1.3,2.8-1.7c1.2-0.4,2.6-0.6,4-0.6C728.4,213.6,730.1,214.2,731.1,215.4z M723.4,225.7
			c-1.7,0.8-2.5,2-2.5,3.7c0,1,0.3,1.7,0.9,2.3c0.6,0.5,1.3,0.8,2.2,0.8c1,0,1.9-0.2,2.7-0.6c0.8-0.4,1.7-1,2.5-1.8c0-0.4,0-1.1,0-2
			l0-3.7C727.1,224.5,725.1,224.9,723.4,225.7z"/>
		<path class="st1" d="M764,214c0.9,0.3,1.7,0.7,2.4,1.3l-0.1-1.5h1.7v7h-1.3c-0.1-1.5-0.6-2.9-1.4-4c-0.9-1.1-2.1-1.7-3.6-1.7
			c-1.2,0-2.1,0.3-2.8,0.9c-0.7,0.6-1.1,1.3-1.1,2.1c0,0.8,0.2,1.4,0.7,1.9c0.5,0.5,1,1,1.7,1.4c0.7,0.4,1.6,0.8,2.8,1.2
			c1.4,0.6,2.5,1.1,3.3,1.6c0.8,0.5,1.6,1.1,2.2,1.9c0.6,0.8,0.9,1.7,0.9,2.8c0,1.3-0.3,2.3-1,3.2c-0.7,0.9-1.5,1.5-2.5,2
			c-1,0.4-2.2,0.7-3.4,0.7c-1.2,0-2.4-0.2-3.4-0.5c-1-0.3-1.9-0.7-2.7-1.3l0.2,1.4h-1.7l-0.2-6.8h1.2c0.1,1.1,0.4,2.1,0.9,2.9
			c0.5,0.8,1.3,1.5,2.1,2c0.9,0.5,1.8,0.7,2.8,0.7c1.1,0,2.2-0.3,3-0.8c0.9-0.5,1.3-1.3,1.3-2.3c0-0.7-0.2-1.4-0.7-1.9
			c-0.4-0.5-1-0.9-1.6-1.3c-0.7-0.3-1.6-0.7-2.7-1.2c-1.4-0.5-2.5-1-3.4-1.5c-0.8-0.5-1.6-1.1-2.2-1.9c-0.6-0.8-0.9-1.8-0.9-3
			c0-0.9,0.2-1.8,0.6-2.6c0.4-0.9,1.1-1.6,2.1-2.2c1-0.6,2.3-0.9,4-0.9C762.3,213.6,763.1,213.7,764,214z"/>
		<path class="st1" d="M794.9,229.9c0,1.2-0.1,2.1-0.2,2.7l2.5-0.1v1.6h-8.1v-1.2c0.8,0,1.3-0.2,1.7-0.6c0.3-0.4,0.5-0.9,0.6-1.5
			c0.1-0.6,0.1-1.5,0.1-2.8V219c0-0.8,0.1-1.6,0.2-2.6l-2.8,0.2v-1.7c1.6,0,2.7-0.1,3.4-0.3c0.7-0.2,1.2-0.5,1.6-0.8h1.2V229.9z
			 M794.6,205.9c0.4,0.5,0.6,1,0.6,1.7c0,0.6-0.2,1.2-0.7,1.7c-0.4,0.5-0.9,0.7-1.5,0.7c-0.6,0-1-0.2-1.5-0.7
			c-0.4-0.5-0.6-1-0.6-1.7c0-0.6,0.2-1.2,0.7-1.7c0.4-0.5,0.9-0.7,1.5-0.7C793.7,205.2,794.2,205.4,794.6,205.9z"/>
		<path class="st1" d="M831.5,214.9c1.5,0.9,2.8,2.1,3.6,3.6c0.9,1.5,1.3,3.2,1.3,5.1c0,2-0.4,3.9-1.3,5.6c-0.9,1.7-2.1,3-3.6,4
			c-1.5,1-3.2,1.5-5.1,1.5c-1.8,0-3.5-0.4-5-1.3c-1.5-0.9-2.7-2.1-3.6-3.6c-0.9-1.5-1.3-3.3-1.3-5.2c0-2.1,0.4-3.9,1.3-5.6
			c0.9-1.7,2.1-3,3.6-4c1.5-1,3.2-1.5,5.1-1.5C828.3,213.6,830,214,831.5,214.9z M822,217.5c-1,1.6-1.5,3.6-1.5,6
			c0,1.7,0.2,3.3,0.7,4.8c0.5,1.5,1.2,2.7,2.1,3.6c0.9,0.9,2.1,1.4,3.4,1.4c1.9,0,3.4-0.8,4.3-2.4c0.9-1.6,1.4-3.6,1.4-5.9
			c0-2.7-0.5-5-1.5-6.9c-1-1.9-2.5-2.9-4.5-2.9C824.5,215.1,823,215.9,822,217.5z M829.6,205.1c0,0.6-0.3,1.1-0.8,1.7l-4.5,4.2
			l-1.1-0.9l3.3-5.4c0.5-0.7,1-1.1,1.6-1.1c0.3,0,0.6,0.1,1,0.3C829.5,204.3,829.6,204.7,829.6,205.1z"/>
		<path class="st1" d="M873.4,215.8c1.1,1.4,1.6,3.7,1.6,6.7v7.4c0,1.2-0.1,2.1-0.2,2.7l2.5-0.1v1.6h-8.1v-1.2
			c0.8,0,1.3-0.2,1.7-0.6c0.3-0.4,0.5-0.9,0.6-1.5c0.1-0.6,0.1-1.5,0.1-2.8v-5.6c0-2.3-0.4-4-1.1-5.2c-0.7-1.2-1.8-1.7-3.4-1.7
			c-1,0-1.9,0.2-2.8,0.7c-0.9,0.5-1.7,1.1-2.3,1.9c0,0.3,0,0.8,0,1.6l0,10.1c0,1.2-0.1,2.1-0.2,2.7l2.5-0.1v1.6h-8.1v-1.2
			c0.8,0,1.3-0.2,1.7-0.6c0.3-0.4,0.5-0.9,0.6-1.4c0.1-0.6,0.1-1.5,0.1-2.8l0-9.1c0-1.1,0.1-2,0.2-2.6l-2.8,0.2v-1.7
			c1.6,0,2.6-0.1,3.2-0.3c0.6-0.2,1.1-0.4,1.5-0.8h1.2c0.1,0.5,0.1,1.3,0.2,2.4c0.9-0.8,1.9-1.4,3.1-1.9c1.2-0.5,2.3-0.7,3.4-0.7
			C870.7,213.6,872.4,214.3,873.4,215.8z"/>
		<path class="st1" d="M939.3,214.8c1.3,0.8,2.4,2,3.2,3.5c0.8,1.5,1.2,3.2,1.2,5.2c0,2.2-0.5,4.2-1.4,5.9c-0.9,1.7-2.2,3-3.7,4
			c-1.6,1-3.2,1.4-5,1.4c-1.8,0-3.4-0.4-4.8-1.3v6.6c0,1.2-0.1,2.1-0.2,2.7l2.5-0.1v1.6h-8.1v-1.2c0.8,0,1.3-0.2,1.7-0.6
			c0.3-0.4,0.5-0.9,0.6-1.4c0.1-0.6,0.1-1.5,0.1-2.8l0.1-19.2c0-1.1,0.1-2,0.2-2.6l-2.8,0.2v-1.7c1.6,0,2.6-0.1,3.2-0.3
			c0.6-0.2,1.1-0.4,1.4-0.8h1.2c0.1,1.3,0.2,2,0.2,2.1c0.8-0.7,1.8-1.3,2.9-1.7c1.1-0.4,2.2-0.7,3.3-0.7
			C936.6,213.6,938,214,939.3,214.8z M931,216.2c-0.8,0.4-1.5,1-2.1,1.6c0,0.2,0,1,0,2.4l0,11.4c1.4,1,2.9,1.6,4.7,1.6
			c1.2,0,2.3-0.4,3.2-1.2c0.9-0.8,1.6-1.8,2.1-3.2c0.5-1.4,0.8-2.9,0.8-4.7c0-2.4-0.5-4.4-1.5-6.1c-1-1.7-2.5-2.5-4.6-2.5
			C932.7,215.5,931.8,215.8,931,216.2z"/>
		<path class="st1" d="M978.4,214.9c1.5,0.9,2.8,2.1,3.6,3.6c0.9,1.5,1.3,3.2,1.3,5.1c0,2-0.4,3.9-1.3,5.6c-0.9,1.7-2.1,3-3.6,4
			c-1.5,1-3.2,1.5-5.1,1.5c-1.8,0-3.5-0.4-5-1.3c-1.5-0.9-2.7-2.1-3.6-3.6c-0.9-1.5-1.3-3.3-1.3-5.2c0-2.1,0.4-3.9,1.3-5.6
			c0.9-1.7,2.1-3,3.6-4c1.5-1,3.2-1.5,5.1-1.5C975.2,213.6,976.9,214,978.4,214.9z M968.9,217.5c-1,1.6-1.5,3.6-1.5,6
			c0,1.7,0.2,3.3,0.7,4.8c0.5,1.5,1.2,2.7,2.1,3.6c0.9,0.9,2.1,1.4,3.4,1.4c1.9,0,3.4-0.8,4.3-2.4c0.9-1.6,1.4-3.6,1.4-5.9
			c0-2.7-0.5-5-1.5-6.9c-1-1.9-2.5-2.9-4.5-2.9C971.4,215.1,969.9,215.9,968.9,217.5z"/>
		<path class="st1" d="M1017.5,214.2c0.5,0.4,0.8,1,0.8,1.9c0,0.4-0.2,0.8-0.5,1.3c-0.3,0.4-0.8,0.6-1.4,0.6c-0.6,0-1.1-0.2-1.4-0.7
			c-0.4-0.4-0.5-1-0.4-1.6c-1,0-2,0.4-3,1.2c-1,0.8-1.9,1.9-2.6,3.2l0,9.8c0,1.2-0.1,2.1-0.2,2.7l2.5-0.1v1.6h-8.2v-1.2
			c0.8,0,1.3-0.2,1.7-0.6c0.3-0.4,0.5-0.9,0.6-1.5c0.1-0.6,0.1-1.5,0.1-2.8V219c0-1.1,0.1-2,0.2-2.6l-2.8,0.1v-1.6h1.2
			c1,0,1.7-0.1,2.2-0.3c0.5-0.2,0.9-0.4,1.3-0.8h1.2c0.1,1,0.2,2.3,0.2,3.9c0.7-1.1,1.6-2.1,2.8-2.9c1.2-0.8,2.5-1.3,3.8-1.3
			C1016.3,213.6,1017,213.8,1017.5,214.2z"/>
		<path class="st1" d="M1068.8,229.9c0,1-0.1,1.9-0.2,2.7l2.5-0.1v1.6h-8.1v-1.2c0.8,0,1.3-0.2,1.7-0.6c0.3-0.4,0.5-0.9,0.6-1.5
			c0.1-0.6,0.1-1.5,0.1-2.8v-18.8c0-1,0-1.9,0.1-2.6l-2.8,0.2v-1.7c1.6,0,2.7-0.1,3.4-0.3c0.7-0.2,1.2-0.5,1.6-0.8h1.2L1068.8,229.9
			z"/>
		<path class="st1" d="M1104.1,215.4c1.1,1.2,1.6,3,1.6,5.6l0,9c0,0.8-0.1,1.8-0.2,2.7l2.8-0.2v1.7h-5.7c-0.1-0.4-0.2-1.2-0.3-2.3
			c-1.9,1.9-4,2.9-6.2,2.9c-1.9,0-3.4-0.4-4.4-1.3c-1-0.9-1.5-2-1.5-3.4c0-1.5,0.6-2.8,1.9-3.9c1.2-1.1,2.8-1.9,4.7-2.4
			c1.9-0.5,3.7-0.8,5.6-0.7v-2.5c0-1.7-0.3-3.1-0.8-4c-0.5-1-1.6-1.5-3.2-1.5c-0.8,0-1.6,0.2-2.3,0.5c-0.7,0.3-1.3,0.9-1.6,1.6
			c0.3,0.4,0.5,0.9,0.5,1.5c0,0.4-0.1,0.8-0.4,1.1c-0.3,0.4-0.7,0.5-1.3,0.5c-0.6,0-1-0.2-1.3-0.5c-0.3-0.4-0.5-0.8-0.5-1.4
			c0-0.9,0.3-1.7,1-2.4c0.7-0.7,1.6-1.3,2.8-1.7c1.2-0.4,2.6-0.6,4-0.6C1101.4,213.6,1103.1,214.2,1104.1,215.4z M1096.5,225.7
			c-1.7,0.8-2.5,2-2.5,3.7c0,1,0.3,1.7,0.9,2.3c0.6,0.5,1.3,0.8,2.2,0.8c1,0,1.9-0.2,2.7-0.6c0.8-0.4,1.7-1,2.5-1.8c0-0.4,0-1.1,0-2
			l0-3.7C1100.1,224.5,1098.2,224.9,1096.5,225.7z"/>
		<path class="st1" d="M1172.4,215.4c-0.6,0-1,0.2-1.4,0.6c-0.4,0.4-0.8,0.9-1.1,1.6c-0.3,0.7-0.8,1.8-1.3,3.2l-5.2,13.4h-1.6
			l-5.7-13c-1.1-2.4-1.6-4.3-1.7-5.5l-1.7,0.1v-1.6h7.3v1.2c-1.2,0-1.8,0.5-1.8,1.5c0,0.7,0.3,1.7,0.8,2.9l3.1,7
			c0.3,0.8,0.7,1.8,1.2,2.9h0c0.1-0.3,0.2-0.6,0.3-0.9l0.6-1.7l3.2-8.7c0.3-0.8,0.7-1.7,1.2-2.7l-2.5,0.1v-1.6h6.3V215.4z"/>
		<path class="st1" d="M1196.3,229.9c0,1.2-0.1,2.1-0.2,2.7l2.5-0.1v1.6h-8.1v-1.2c0.8,0,1.3-0.2,1.7-0.6c0.3-0.4,0.5-0.9,0.6-1.5
			c0.1-0.6,0.1-1.5,0.1-2.8V219c0-0.8,0.1-1.6,0.2-2.6l-2.8,0.2v-1.7c1.6,0,2.7-0.1,3.4-0.3c0.7-0.2,1.2-0.5,1.6-0.8h1.2V229.9z
			 M1196.1,205.9c0.4,0.5,0.6,1,0.6,1.7c0,0.6-0.2,1.2-0.7,1.7c-0.4,0.5-0.9,0.7-1.5,0.7c-0.6,0-1-0.2-1.5-0.7
			c-0.4-0.5-0.6-1-0.6-1.7c0-0.6,0.2-1.2,0.7-1.7c0.4-0.5,0.9-0.7,1.5-0.7C1195.2,205.2,1195.7,205.4,1196.1,205.9z"/>
		<path class="st1" d="M1236.2,229.9c0,0.8-0.1,1.8-0.2,2.7l2.8-0.2v1.7h-5.7c-0.1-0.7-0.2-1.4-0.3-2.1c-0.8,0.8-1.7,1.5-2.8,2
			c-1.1,0.5-2.3,0.7-3.6,0.7c-1.6,0-3.1-0.4-4.4-1.2c-1.3-0.8-2.3-2-3.1-3.5c-0.7-1.5-1.1-3.3-1.1-5.3c0-2.1,0.4-4,1.3-5.7
			c0.9-1.7,2.1-3,3.6-4c1.6-1,3.3-1.4,5.3-1.4c0.8,0,1.7,0.1,2.5,0.3c0.9,0.2,1.6,0.5,2.1,0.8v-5.5c0-1,0-1.9,0.1-2.6l-2.8,0.2v-1.7
			c1.6,0,2.7-0.1,3.4-0.3c0.7-0.2,1.2-0.5,1.6-0.8h1.2V229.9z M1223.8,217.5c-1.2,1.6-1.8,3.7-1.8,6.3c0,2.7,0.5,4.9,1.6,6.5
			c1,1.7,2.5,2.5,4.4,2.5c0.8,0,1.7-0.2,2.6-0.7c0.9-0.5,1.6-1.1,2.2-1.9c0-0.4,0-1.2,0-2.2l0-11.5c-1.2-0.9-2.7-1.4-4.4-1.4
			C1226.5,215.1,1225,215.9,1223.8,217.5z"/>
		<path class="st1" d="M1271.8,215.4c1.1,1.2,1.6,3,1.6,5.6l0,9c0,0.8-0.1,1.8-0.2,2.7l2.8-0.2v1.7h-5.7c-0.1-0.4-0.2-1.2-0.3-2.3
			c-1.9,1.9-4,2.9-6.2,2.9c-1.9,0-3.4-0.4-4.4-1.3c-1-0.9-1.5-2-1.5-3.4c0-1.5,0.6-2.8,1.9-3.9c1.2-1.1,2.8-1.9,4.7-2.4
			c1.9-0.5,3.7-0.8,5.6-0.7v-2.5c0-1.7-0.3-3.1-0.8-4c-0.5-1-1.6-1.5-3.2-1.5c-0.8,0-1.6,0.2-2.3,0.5c-0.7,0.3-1.3,0.9-1.6,1.6
			c0.3,0.4,0.5,0.9,0.5,1.5c0,0.4-0.1,0.8-0.4,1.1c-0.3,0.4-0.7,0.5-1.3,0.5c-0.6,0-1-0.2-1.3-0.5c-0.3-0.4-0.5-0.8-0.5-1.4
			c0-0.9,0.3-1.7,1-2.4c0.7-0.7,1.6-1.3,2.8-1.7c1.2-0.4,2.6-0.6,4-0.6C1269.1,213.6,1270.7,214.2,1271.8,215.4z M1264.1,225.7
			c-1.7,0.8-2.5,2-2.5,3.7c0,1,0.3,1.7,0.9,2.3c0.6,0.5,1.3,0.8,2.2,0.8c1,0,1.9-0.2,2.7-0.6c0.8-0.4,1.7-1,2.5-1.8c0-0.4,0-1.1,0-2
			l0-3.7C1267.7,224.5,1265.8,224.9,1264.1,225.7z"/>
	</g>
	<g>
		<path class="st2" d="M206.2,190.3H109c0,0-24.2,1-35-26c-10.8-27-12.6-35.6-12.6-35.6s-4.4-13.8,5.6-18.6c0,0,1.5-0.4,2,1.4
			c2.8,9.6,12.5,51.1,43,54.3l40.8,1.6c0,0,5-1.3,0.4-4.5c0,0-26.1-6.4-34.2-12.7c-8.2-6.3-4.8-9.9-4.8-9.9s1.4-2,8.2-0.7
			c6.7,1.2,43.4,8.9,43.4,8.9S198.8,154.4,206.2,190.3"/>
		<path class="st3" d="M77.6,110.1c0,0,1.2-0.4,1.9,1.7c0.7,2.1,9.4,24.7,13.3,31.1c3.9,6.4,11.2,15.1,15.6,17.5
			c0,0-15.7-2.5-25.8-23.7C72.4,115.4,74.6,112.3,77.6,110.1"/>
		<path class="st0" d="M89.5,112.9c0,0,1.2-0.4,1.8,1.7c0.7,2.1,9.1,23.8,12.8,30c3.7,6.2,10.8,14.5,15,16.9c0,0-15.1-2.4-24.9-22.9
			C84.5,118,86.5,115,89.5,112.9"/>
	</g>
	<g>
		<path class="st4" d="M136.2,131.6c0,0,9.4-34.9,2.7-50.3c-6.7-15.5-25.6-8.8-25.6-8.8s-18.4,7.9-13,23.8
			C105.9,112.2,136.2,131.6,136.2,131.6"/>
		<path class="st5" d="M136.2,131.6c0,0,31.2-18,37.4-33.7c6.2-15.7-11.9-24.4-11.9-24.4s-18.6-7.5-25.9,7.6
			C128.5,96.3,136.2,131.6,136.2,131.6"/>
	</g>
	<g>
		<path class="st2" d="M47.5,118.8c0,50,35.8,91.5,83.1,100.3c6,1.1,11.8,2.5,26.6-2.7c0,0,15.6-7.8,21.9,0c0,0,19.3,16.3-14.2,31
			c-8.9,3.9-19.2,4.7-29.3,4.7c-65.5,0-118.6-53.3-118.6-118.9"/>
		<g>
			<defs>
				<path id="SVGID_1_" d="M17,132.9c0,9,0.5,20,6,37.2c2.4,7.4,9.1,28.3,32.7,51c20,19.1,50.6,31.5,79.4,30.9
					c-0.8-0.3-28.8-9.9-34.9-43.9c-31.2-17.4-52.5-51.2-52.5-89.6L17,132.9z"/>
			</defs>
			<clipPath id="SVGID_2_">
				<use xlink:href="#SVGID_1_"  style="overflow:visible;"/>
			</clipPath>
		</g>
		<path class="st6" d="M176.3,224.9c0,4.5-5.3,7.9-10,4.2c-3.6-4.7-0.3-9.9,4.2-9.9C173.8,219.1,176.3,221.7,176.3,224.9"/>
	</g>
	<linearGradient id="SVGID_3_" gradientUnits="userSpaceOnUse" x1="17" y1="133.0472" x2="168.2868" y2="133.0472">
		<stop  offset="0" style="stop-color:#315887"/>
		<stop  offset="1" style="stop-color:#1F365B"/>
	</linearGradient>
	<path class="st7" d="M100.2,208c0,0-47.9-22.6-52.3-83.3c0,0-7.2-47.7,39.1-86.4c16.8-14.1,44.6-26.3,81.4-19.5
		c0,0-3.2-0.9-7.5-1.9c-10.5-2.4-31.5-5.4-57.8,1.9C66.6,28.9,23.2,61.9,17.4,124c0,0-4.5,37.7,18.3,72.9
		c17.2,26.4,47.6,54,99.5,55.1C135.1,252,106.4,241.9,100.2,208z"/>
	<g>
		<g>
			<path class="st2" d="M225.2,147.3c0-50-35.8-91.5-83.1-100.3c-6-1.1-11.8-2.5-26.6,2.7c0,0-14.4,7.2-21.9,0
				c0,0-19.3-16.3,14.2-31c8.9-3.9,19.2-4.7,29.3-4.7c65.5,0,118.6,53.3,118.6,118.9"/>
			<g>
				<defs>
					<path id="SVGID_4_" d="M255.7,133.3c0-9-0.5-20-6-37.2c-2.4-7.4-9.1-28.3-32.7-51c-20-19.1-50.6-31.5-79.4-30.9
						c0.8,0.3,28.8,9.9,34.9,43.9c31.2,17.4,52.5,51.2,52.5,89.6L255.7,133.3z"/>
				</defs>
				<clipPath id="SVGID_5_">
					<use xlink:href="#SVGID_4_"  style="overflow:visible;"/>
				</clipPath>
			</g>
			<path class="st6" d="M96.4,41.3c0-4.5,5.3-7.9,10-4.2c3.6,4.7,0.3,9.9-4.2,9.9C98.9,47,96.4,44.4,96.4,41.3"/>
		</g>
		
			<linearGradient id="SVGID_6_" gradientUnits="userSpaceOnUse" x1="180" y1="151.0472" x2="331.2868" y2="151.0472" gradientTransform="matrix(-1 0 0 -1 435.6965 284.1293)">
			<stop  offset="0" style="stop-color:#315887"/>
			<stop  offset="1" style="stop-color:#1F365B"/>
		</linearGradient>
		<path class="st8" d="M172.5,58.1c0,0,47.9,22.6,52.3,83.3c0,0,7.2,47.7-39.1,86.4c-16.8,14.1-44.6,26.3-81.4,19.5
			c0,0,3.2,0.9,7.5,1.9c10.5,2.4,31.5,5.4,57.8-1.9c36.4-10.1,79.7-43.1,85.6-105.3c0,0,4.5-37.7-18.3-72.9
			c-17.2-26.4-47.6-54-99.5-55.1C137.5,14.2,166.3,24.2,172.5,58.1z"/>
	</g>
</g>
</svg>
