<?xml version="1.0" encoding="utf-8"?>
<!-- Generator: Adobe Illustrator 21.1.0, SVG Export Plug-In . SVG Version: 6.00 Build 0)  -->
<svg version="1.1" id="Capa_1" xmlns="http://www.w3.org/2000/svg" xmlns:xlink="http://www.w3.org/1999/xlink" x="0px" y="0px"
	 viewBox="0 0 940.5 436.5" style="enable-background:new 0 0 940.5 436.5;" xml:space="preserve">
<style type="text/css">
	.st0{fill:#538CBB;}
	.st1{fill:#2F5480;}
	.st2{fill:#1D3458;}
	.st3{fill:#901F2B;}
	.st4{fill:#C02E38;}
	.st5{fill:#AEAEAF;}
	.st6{fill:url(#SVGID_3_);}
	.st7{fill:url(#SVGID_6_);}
</style>
<g>
	<g>
		<path class="st0" d="M350.2,323.3H171.9c0,0-44.3,1.9-64.1-47.7c-19.8-49.6-23.1-65.3-23.1-65.3s-8.1-25.2,10.3-34.2
			c0,0,2.7-0.7,3.6,2.5c5.2,17.6,22.9,93.7,78.9,99.6l74.8,3c0,0,9.1-2.3,0.7-8.2c0,0-47.8-11.7-62.8-23.3
			c-15-11.6-8.8-18.1-8.8-18.1s2.6-3.6,15-1.3c12.3,2.3,79.7,16.3,79.7,16.3S336.7,257.3,350.2,323.3"/>
		<path class="st1" d="M114.2,176.1c0,0,2.2-0.8,3.4,3.1c1.2,3.9,17.3,45.3,24.4,57.1c7.1,11.7,20.5,27.7,28.6,32.1
			c0,0-28.8-4.6-47.4-43.5C104.7,185.9,108.6,180.1,114.2,176.1"/>
		<path class="st2" d="M136,181.2c0,0,2.1-0.7,3.3,3.1c1.2,3.8,16.7,43.7,23.6,55c6.8,11.3,19.8,26.7,27.6,31c0,0-27.8-4.4-45.7-42
			C126.8,190.6,130.6,185,136,181.2"/>
	</g>
	<g>
		<path class="st3" d="M221.8,215.6c0,0,17.2-64,4.9-92.4c-12.2-28.4-46.9-16.2-46.9-16.2S146,121.5,156,150.7
			C166.1,179.9,221.8,215.6,221.8,215.6"/>
		<path class="st4" d="M221.8,215.6c0,0,57.3-33.1,68.6-61.8c11.3-28.7-21.8-44.7-21.8-44.7s-34.1-13.8-47.6,14
			C207.5,150.8,221.8,215.6,221.8,215.6"/>
	</g>
	<g>
		<path class="st0" d="M59,192.1c0,91.7,65.8,168,152.6,184c11,2,21.6,4.6,48.8-5c0,0,28.7-14.4,40.2,0c0,0,35.4,29.8-26.1,56.9
			c-16.3,7.1-35.2,8.5-53.7,8.5c-120.2,0-217.6-97.7-217.6-218.3"/>
		<g>
			<defs>
				<path id="SVGID_1_" d="M3.1,217.9c0,16.4,0.9,36.6,11.1,68.3c4.4,13.7,16.6,52,60,93.5c36.6,35.1,92.9,57.8,145.6,56.7
					c-1.5-0.5-52.8-18.2-64.1-80.6c-57.3-31.9-96.3-93.9-96.3-164.4L3.1,217.9z"/>
			</defs>
			<clipPath id="SVGID_2_">
				<use xlink:href="#SVGID_1_"  style="overflow:visible;"/>
			</clipPath>
		</g>
		<path class="st5" d="M295.4,386.7c0,8.3-9.6,14.4-18.3,7.7c-6.5-8.7-0.5-18.2,7.8-18.2C290.6,376.1,295.4,380.9,295.4,386.7"/>
	</g>
	<linearGradient id="SVGID_3_" gradientUnits="userSpaceOnUse" x1="3" y1="218.2066" x2="280.6013" y2="218.2066">
		<stop  offset="0" style="stop-color:#2F5480"/>
		<stop  offset="1" style="stop-color:#1D3458"/>
	</linearGradient>
	<path class="st6" d="M155.7,355.8c0,0-87.9-41.4-96-152.9c0,0-13.2-87.4,71.7-158.6C162.2,18.4,213.1-4,280.6,8.4
		c0,0-5.8-1.7-13.8-3.5C247.6,0.6,209-5,160.7,8.4C93.9,27,14.4,87.6,3.7,201.7c0,0-8.3,69.3,33.6,133.7
		c31.5,48.5,87.3,99,182.6,101.1C219.8,436.4,167.1,418,155.7,355.8z"/>
	<g>
		<g>
			<path class="st0" d="M385,244.4c0-91.7-65.8-168-152.6-184c-11-2-21.6-4.6-48.8,5c0,0-26.5,13.3-40.2,0c0,0-35.4-29.8,26.1-56.9
				C185.8,1.4,204.7,0,223.2,0c120.2,0,217.6,97.7,217.6,218.3"/>
			<g>
				<defs>
					<path id="SVGID_4_" d="M440.9,218.6c0-16.4-0.9-36.6-11.1-68.3c-4.4-13.7-16.6-52-60-93.5C333.2,21.7,276.9-1.1,224.3,0.1
						c1.5,0.5,52.8,18.2,64.1,80.6c57.3,31.9,96.3,93.9,96.3,164.4L440.9,218.6z"/>
				</defs>
				<clipPath id="SVGID_5_">
					<use xlink:href="#SVGID_4_"  style="overflow:visible;"/>
				</clipPath>
			</g>
			<path class="st5" d="M148.6,49.8c0-8.3,9.6-14.4,18.3-7.7c6.5,8.7,0.5,18.2-7.8,18.2C153.3,60.3,148.6,55.6,148.6,49.8"/>
		</g>
		
			<linearGradient id="SVGID_6_" gradientUnits="userSpaceOnUse" x1="-352.2113" y1="234.9155" x2="-74.61" y2="234.9155" gradientTransform="matrix(-1 0 0 -1 88.781 453.186)">
			<stop  offset="0" style="stop-color:#2F5480"/>
			<stop  offset="1" style="stop-color:#1D3458"/>
		</linearGradient>
		<path class="st7" d="M288.3,80.7c0,0,87.9,41.4,96,152.9c0,0,13.2,87.4-71.7,158.6c-30.9,25.9-81.8,48.3-149.3,35.8
			c0,0,5.8,1.7,13.8,3.5c19.3,4.4,57.9,9.9,106.1-3.5c66.8-18.6,146.3-79.1,157.1-193.2c0,0,8.3-69.3-33.6-133.7
			c-31.5-48.5-87.3-99-182.6-101.1C224.2,0.1,276.9,18.5,288.3,80.7z"/>
	</g>
</g>
<g>
	<g>
		<path class="st2" d="M497,145.7h6.8v53.1h25.6v5.9H497V145.7z"/>
		<path class="st2" d="M532.7,182.5c0-15.8,8.8-24.5,21-24.5c13.5,0,20.2,8.7,20.2,24c0,16-8.8,23.8-20.8,23.8
			C540.5,205.8,532.7,197.4,532.7,182.5z M567.2,182c0-8.4-2.6-18.5-13.8-18.5c-11,0-13.9,10-13.9,18.6c0,9.5,3.3,18.3,14.1,18.3
			C564.5,200.3,567.2,191.1,567.2,182z"/>
		<path class="st2" d="M600.6,141.8h6.6v22.5c3.2-2.3,8.8-6.3,15.9-6.3c13.4,0,14,9.5,14,17.4v29.4h-6.3v-28.1
			c0-7.9-1.1-12.8-9.4-12.8c-5.3,0-12.2,4.4-14.2,5.6v35.3h-6.6V141.8z"/>
		<path class="st2" d="M646.4,192.5c0-11.1,10-13.5,17.4-13.7l10.9-0.2v-6.1c0-7.3-3.6-8.7-11.7-8.7c-4.2,0-9.3,1.5-11.3,2.1
			l-1.4-5.2c2-0.8,7.8-2.7,14.6-2.7c10.1,0,16.2,3.3,16.2,12.3v25.3c0,3.4,2.3,4.2,4.3,4.4l-0.4,5.2h-1.2c-3.8,0-8.1-1.7-8.6-5.8
			c-2.2,1.4-6.8,5.9-15.9,5.9C651.1,205.4,646.4,200.9,646.4,192.5z M674.7,195.1v-11.9l-10.9,0.4c-7.1,0.3-11,3.7-11,8.3
			c0,6.1,3.3,8.2,8.3,8.2C666.7,200.1,673.5,195.7,674.7,195.1z"/>
		<path class="st2" d="M693.3,182c0-14.8,8.3-24,21.4-24c6.2,0,10.1,1.3,12.4,2.6l-2,5.2c-2.4-1-5.5-2.3-10.6-2.3
			c-8.7,0-14.4,6.6-14.4,18.2c0,12.4,3.9,18.1,17.1,18.1c3.7,0,7-0.9,8.8-1.2l1.1,5.3c-1.7,0.5-5.8,1.5-10.5,1.5
			C700.3,205.5,693.3,198.6,693.3,182z"/>
		<path class="st2" d="M733.2,182.8c0-18.4,8.9-24.8,20.4-24.8c11.3,0,16.4,7.7,16.4,22.8v2.4h-30.1c0.3,14.5,7.4,16.9,16.9,16.9
			c3.3,0,9.3-1.3,11.3-1.9l1.2,5.4c-1.5,0.6-7,2.2-14.4,2.2C741.5,205.8,733.2,200.3,733.2,182.8z M763.1,178.3
			c0-9.2-3.3-15.4-10.5-15.4c-6.8,0-11.8,5.2-12.6,15.4H763.1z"/>
		<path class="st2" d="M780,159.2h6.6v5.3c3.7-2.9,9.1-6.4,14.7-6.4c7.3,0,10.9,3,12.6,6.8c3.6-2.8,9.2-6.8,16.4-6.8
			c13.4,0,14.2,9.4,14.2,17.3v29.4h-6.6v-28.1c0-7.1-1-12.7-9.3-12.7c-5,0-9.8,2.8-13.6,5.5c0.3,1.9,0.5,4,0.5,5.9v29.4H809v-28.1
			c0-7.1-0.8-12.8-9.2-12.8c-4.3,0-9.5,3.3-13.2,5.9v35H780V159.2z"/>
		<path class="st2" d="M854.5,182.5c0-15.8,8.8-24.5,21-24.5c13.5,0,20.2,8.7,20.2,24c0,16-8.8,23.8-20.8,23.8
			C862.3,205.8,854.5,197.4,854.5,182.5z M889,182c0-8.4-2.6-18.5-13.8-18.5c-11,0-13.9,10-13.9,18.6c0,9.5,3.3,18.3,14.1,18.3
			C886.3,200.3,889,191.1,889,182z"/>
		<path class="st2" d="M903,203.8l1.2-5.4c2.9,0.7,7.5,1.9,11.6,1.9c7.1,0,11.4-2.8,11.4-7.1c0-10.5-23-7-23-22.6
			c0-8.2,6.7-12.5,15.6-12.5c4.9,0,9.3,1.4,11,1.9l-1.2,5.3c-2.1-0.6-5.5-1.7-10.5-1.7c-5.8,0-8.5,3-8.5,6.6
			c0,10.5,22.8,7.6,22.8,22.5c0,10.4-9.6,13.1-17.1,13.1C910.3,205.7,905.7,204.6,903,203.8z"/>
	</g>
</g>
<g>
	<path class="st4" d="M490.9,260.8c0-15.7,11-23.3,24.9-23.3c2.5,0,4.6,0.3,6,0.5v-16.8h14v63.2h-14v-3.3c-2,1.6-4.6,3.9-10.4,3.9
		C502.2,285.1,490.9,280.7,490.9,260.8z M521.8,272v-22.9c-1.4-0.3-3.3-0.6-5.8-0.6c-8,0-11.2,4.5-11.2,12.5c0,10,4.4,12.5,9.4,12.5
		C516.7,273.5,519.7,272.9,521.8,272z"/>
	<path class="st4" d="M543,262.2c0-18.7,9.8-24.6,23.6-24.6c14.4,0,19.9,9.4,19.9,23.2v5h-29.6c-0.1,7.2,5.6,8.5,12.9,8.5
		c3.1,0,8.3-1,13.1-1.8l2.1,10.6c-5.1,1.5-11.6,2.3-17.2,2.3C552.7,285.4,543,280.5,543,262.2z M572.3,256.9
		c0.2-5.5-2.3-9.4-6.8-9.4c-4.8,0-7.9,3.4-8.1,9.4H572.3z"/>
	<path class="st4" d="M610.5,261.1c0-14.2,9.5-23.6,25-23.6c6.7,0,11,1.3,14.6,3.2l-3.6,10.1c-3.7-1.4-5.7-1.9-10.4-1.9
		c-5.8,0-11.3,2.6-11.3,12.4c0,8.8,2.1,12.9,13.1,12.9c3.9,0,5.9-0.5,9.7-1.2l1.9,10.6c-4.9,1.1-7.3,1.7-12.4,1.7
		C617.8,285.3,610.5,278.2,610.5,261.1z"/>
	<path class="st4" d="M653.8,262c0-15.2,9.5-24.5,24-24.5c16.2,0,23.5,9.1,23.5,24c0,15.6-10.2,23.9-24.3,23.9
		C662,285.4,653.8,276.3,653.8,262z M687.1,261.6c0-7.4-1.8-13-9.5-13c-7.5,0-9.6,5.6-9.6,13.1c0,7.9,2.3,12.6,9.8,12.6
		C685.3,274.3,687.1,269.3,687.1,261.6z"/>
	<path class="st4" d="M708.5,238.7h14v6.1c2.3-2.9,6.5-7,11.8-7c2.5,0,4.4,0.2,6.3,0.8l-1.8,11.5c-2.7-0.5-3.6-0.5-6.1-0.5
		c-4.1,0-8.3,1.9-10.1,3.9v31h-14V238.7z"/>
	<path class="st4" d="M740.9,271.4c0-11.6,10.6-13.9,19.6-13.9h8v-2.8c0-4-2.6-5.2-8.3-5.2c-4.5,0-9.4,1-13.7,2l-2.8-10.1
		c5.2-2,11.2-3.7,18.5-3.7c14.2,0,19.9,4,19.9,14.3v20.4c0,1.5,1.5,1.8,4.1,1.9l-0.5,10.6c-1.1,0.1-2.2,0.1-3.3,0.1
		c-5.5,0-11.4-0.9-12.6-4.9c-3.3,2.6-8.1,5.2-13.1,5.2C746.6,285.2,740.9,280.5,740.9,271.4z M768.4,272.8v-7.2l-6.9,0.2
		c-4.1,0.1-7.1,1.4-7.1,4.8c0,2.7,2.6,3.9,5.1,3.9C762.2,274.4,765.4,273.6,768.4,272.8z"/>
	<path class="st4" d="M791.7,275.3l21.4-25.4h-20.1v-11.2h36.5v8.9l-20.9,25.8h21.3v11.1h-38.2V275.3z"/>
	<path class="st4" d="M834.6,262c0-15.2,9.5-24.5,24-24.5c16.2,0,23.5,9.1,23.5,24c0,15.6-10.2,23.9-24.3,23.9
		C842.7,285.4,834.6,276.3,834.6,262z M846.9,225.6l19.9-10.1l4.5,9.8l-20.5,8.7L846.9,225.6z M867.9,261.6c0-7.4-1.8-13-9.5-13
		c-7.5,0-9.6,5.6-9.6,13.1c0,7.9,2.3,12.6,9.8,12.6C866,274.3,867.9,269.3,867.9,261.6z"/>
	<path class="st4" d="M889.3,238.7h14v4.6c2.8-2.1,8.8-5.8,14.9-5.8c14.3,0,15.3,7.9,15.3,18.3v28.6h-13.9v-27.5
		c0-6.3-1.4-7.4-6.1-7.4c-4.2,0-8,1.3-10.2,2.4v32.4h-14V238.7z"/>
</g>
</svg>
